<svg width="48" height="48" viewBox="0 0 48 48" fill="none" xmlns="http://www.w3.org/2000/svg">
<g filter="url(#filter0_i_125_207)">
<rect width="48" height="48" rx="8" fill="#5700FF"/>
<g clip-path="url(#clip0_125_207)">
<path d="M19.5502 33.7507C28.6045 33.7507 33.5583 26.2474 33.5583 19.7426C33.5583 19.5317 33.5536 19.316 33.5442 19.1051C34.5079 18.4082 35.3395 17.545 36 16.556C35.1025 16.9553 34.1496 17.2161 33.1739 17.3295C34.2013 16.7136 34.9705 15.7462 35.3391 14.6065C34.3726 15.1793 33.3156 15.5833 32.2134 15.8013C31.4708 15.0123 30.489 14.4898 29.4197 14.3148C28.3504 14.1397 27.2532 14.3218 26.2977 14.8328C25.3423 15.3439 24.5818 16.1554 24.1338 17.142C23.6859 18.1287 23.5754 19.2353 23.8195 20.291C21.8625 20.1928 19.9479 19.6844 18.2 18.7988C16.452 17.9132 14.9097 16.6702 13.673 15.1502C13.0444 16.234 12.8521 17.5164 13.135 18.7368C13.418 19.9573 14.1551 21.0242 15.1964 21.7207C14.4146 21.6959 13.65 21.4854 12.9656 21.1067V21.1676C12.9649 22.3049 13.3581 23.4073 14.0783 24.2875C14.7985 25.1677 15.8013 25.7713 16.9162 25.9957C16.1921 26.1939 15.432 26.2227 14.6948 26.0801C15.0095 27.0582 15.6216 27.9136 16.4458 28.5271C17.27 29.1405 18.2651 29.4813 19.2923 29.502C17.5484 30.8718 15.3942 31.6149 13.1766 31.6113C12.7833 31.6107 12.3904 31.5866 12 31.5392C14.2529 32.9845 16.8735 33.7521 19.5502 33.7507Z" fill="#FDFDFC"/>
</g>
</g>
<defs>
<filter id="filter0_i_125_207" x="0" y="0" width="48" height="48" filterUnits="userSpaceOnUse" color-interpolation-filters="sRGB">
<feFlood flood-opacity="0" result="BackgroundImageFix"/>
<feBlend mode="normal" in="SourceGraphic" in2="BackgroundImageFix" result="shape"/>
<feColorMatrix in="SourceAlpha" type="matrix" values="0 0 0 0 0 0 0 0 0 0 0 0 0 0 0 0 0 0 127 0" result="hardAlpha"/>
<feMorphology radius="4" operator="erode" in="SourceAlpha" result="effect1_innerShadow_125_207"/>
<feOffset/>
<feGaussianBlur stdDeviation="7"/>
<feComposite in2="hardAlpha" operator="arithmetic" k2="-1" k3="1"/>
<feColorMatrix type="matrix" values="0 0 0 0 1 0 0 0 0 1 0 0 0 0 1 0 0 0 0.5 0"/>
<feBlend mode="normal" in2="shape" result="effect1_innerShadow_125_207"/>
</filter>
<clipPath id="clip0_125_207">
<rect width="24" height="24" fill="white" transform="translate(12 12)"/>
</clipPath>
</defs>
</svg>
