<svg width="48" height="48" viewBox="0 0 48 48" fill="none" xmlns="http://www.w3.org/2000/svg">
<g filter="url(#filter0_i_125_204)">
<rect width="48" height="48" rx="8" fill="#5700FF"/>
<g clip-path="url(#clip0_125_204)">
<path d="M34.2234 12H13.7719C12.7922 12 12 12.7734 12 13.7297V34.2656C12 35.2219 12.7922 36 13.7719 36H34.2234C35.2031 36 36 35.2219 36 34.2703V13.7297C36 12.7734 35.2031 12 34.2234 12ZM19.1203 32.4516H15.5578V20.9953H19.1203V32.4516ZM17.3391 19.4344C16.1953 19.4344 15.2719 18.5109 15.2719 17.3719C15.2719 16.2328 16.1953 15.3094 17.3391 15.3094C18.4781 15.3094 19.4016 16.2328 19.4016 17.3719C19.4016 18.5062 18.4781 19.4344 17.3391 19.4344ZM32.4516 32.4516H28.8937V26.8828C28.8937 25.5562 28.8703 23.8453 27.0422 23.8453C25.1906 23.8453 24.9094 25.2937 24.9094 26.7891V32.4516H21.3563V20.9953H24.7687V22.5609H24.8156C25.2891 21.6609 26.4516 20.7094 28.1813 20.7094C31.7859 20.7094 32.4516 23.0813 32.4516 26.1656V32.4516Z" fill="#FDFDFC"/>
</g>
</g>
<defs>
<filter id="filter0_i_125_204" x="0" y="0" width="48" height="48" filterUnits="userSpaceOnUse" color-interpolation-filters="sRGB">
<feFlood flood-opacity="0" result="BackgroundImageFix"/>
<feBlend mode="normal" in="SourceGraphic" in2="BackgroundImageFix" result="shape"/>
<feColorMatrix in="SourceAlpha" type="matrix" values="0 0 0 0 0 0 0 0 0 0 0 0 0 0 0 0 0 0 127 0" result="hardAlpha"/>
<feMorphology radius="4" operator="erode" in="SourceAlpha" result="effect1_innerShadow_125_204"/>
<feOffset/>
<feGaussianBlur stdDeviation="7"/>
<feComposite in2="hardAlpha" operator="arithmetic" k2="-1" k3="1"/>
<feColorMatrix type="matrix" values="0 0 0 0 1 0 0 0 0 1 0 0 0 0 1 0 0 0 0.5 0"/>
<feBlend mode="normal" in2="shape" result="effect1_innerShadow_125_204"/>
</filter>
<clipPath id="clip0_125_204">
<rect width="24" height="24" fill="white" transform="translate(12 12)"/>
</clipPath>
</defs>
</svg>
